<?xml version="1.0" encoding="utf-8"?>
<!-- Generator: Adobe Illustrator 22.0.1, SVG Export Plug-In . SVG Version: 6.00 Build 0)  -->
<svg version="1.1" id="Layer_1" xmlns="http://www.w3.org/2000/svg" xmlns:xlink="http://www.w3.org/1999/xlink" x="0px" y="0px"
	 viewBox="0 0 600 600" style="enable-background:new 0 0 600 600;" xml:space="preserve">
<style type="text/css">
	.st0{fill:#FFFFFF;}
</style>
<g>
	<path class="st0" d="M153.3,610.5c4,2.5,8.3,3.9,10.5,6.9c4.7,6.3,4.5,15.2,10,21.5c1.1,1.3,1.6,3.6,3.5,5c2.6,1.9,5.4,4,7.1,6.7
		c8,13.4,16,26.8,23.2,40.6c5.8,11,10.3,22.7,15.5,34c1.4,3,3.2,5.8,4.5,8.8c5.5,12.2,10.8,24.5,16.4,36.6c1.7,3.7,3.9,7.2,5.7,10.9
		c4.3,9.1,8.2,18.5,12.9,27.4c6.1,11.6,12.9,22.8,19.5,34.1c4.3,7.3,8.5,14.7,13.2,21.7c5.2,7.6,10.7,15.1,16.6,22.2
		c7.8,9.3,16,18.3,24.3,27.2c1.2,1.2,4.7,2.2,5.5,1.5c1.4-1.3,2.3-4.1,1.9-6c-1.5-7.7-3.1-15.5-5.7-22.9
		c-4.9-14.4-10.5-28.6-15.8-42.9c-1-2.8-2.3-5.5-3.1-8.4c-2.8-9.2,1.6-14.5,11-13.7c2.5,0.2,5.1,0,8.8,0
		c-10.1-8.6-23.7-13.2-20.5-29c1-1.4,2.3-3.1,2.7-5c0.7-3.1-1.8-3.2-4-3.7c-1.1-0.3-2.5-1.6-2.9-2.7c-1.1-3.1-1.6-6.4-2.5-9.5
		c-1.3-4.5-2.4-8.7,0.2-13.3c0.8-1.4-0.4-4-0.4-6c0-1.1,0.2-2.6,0.9-3.3c5.2-4.5,5.2-7.5,0-12.2c-1.2-1.1-1.9-2.6-3.2-4.5
		c3.6-0.3,5.9-0.4,8-0.6c1.4-4.2,0.8-7.4-2.2-10.3c-2-1.9-3.9-4.3-4.8-6.8c-2.4-6.7-6.8-9.5-13.8-8.6c-3.2,0.4-6.6,1-9.7,0.2
		c-14-3.5-17.6-11.1-15.3-24.4c0.8-4.4-0.8-7.6-4.8-8.8c-6-1.8-13.6-9.7-12.1-15.1c2.1-7.9-2.3-13.5-4.6-19.9
		c-1.7-5-3.5-10.9-7.2-14.2c-6.4-5.7-8.2-12.5-8.7-20.3c-0.1-1.5-0.1-3-0.5-4.4c-3.9-12-7.8-24-11.8-35.9c-4-12.3-5-25-4.5-37.7
		c0.3-8.5,1.5-17.1,2.3-25.5c-2.5-1.1-5.7-1.4-7.1-3.2c-5.8-7.6-10.7-15.7-8.6-25.9c1.4-6.5,0.2-11.5-5.7-15.2c-1.7-1.1-3-3.1-4-5
		c-6.5-11.7-13.1-23.4-19-35.4c-5.8-11.7-9.8-24.3-16.3-35.6c-5.5-9.5-9.5-19.3-12.9-29.6c-3.3-9.8-6.1-19.8-8.8-29.9
		c-4.8-18-9.5-36-14-54c-3-12.1-5.1-24.5-8.3-36.6c-1.6-5.9-4.1-11.8-7-17.2c-5.6-10.2-11.8-20-18.1-30.6c3.8,0,7,0,10.8,0
		c-2.1-2.7-3.8-5.3-5.9-7.6c-3.6-4-6.1-10.3-13.6-7.6c-0.9,0.3-2.4-0.2-3.3-0.9c-3.2-2.5-6.8-4.7-9.1-7.9c-8-10.8-15.5-22-23.1-33.1
		c-1.4-2.1-1.9-4.8-3.1-7.7c7.2,0.3,13.4,0.6,19.5,0.9c0.1-0.5,0.2-0.9,0.4-1.4c-7.1-4.5-14.1-9-21.2-13.6
		C33.7,98.1,24.9,94.4,19,88C2.7,70.4-12.2,51.5-27.9,33.4c-4.8-5.6-6.9-14.2-15.9-15.6c-0.4-0.1-0.7-0.7-1-1.1
		C-52.1,6.1-61-3-71.2-10.7C-81-18-90.7-25.7-101-32.3c-14.4-9.2-29.4-17.7-44.2-26.3c-9.8-5.7-19.7-11.5-29.8-16.8
		c-9.4-4.9-19.2-9-28.8-13.6c-6-2.9-6-3.1-8.1,4.2c19.1,9.5,35.4,23.2,51.8,36.9c22.3,18.8,44.8,39.6,46.2,45.7
		c-5.9-1.7-11.2-3.3-16.5-4.9c-0.6,2.7-1,4.7-1.4,6.6c5.4,2.7,11.2,4.5,15.6,8c13.3,10.6,26.6,21.3,38.9,33
		c10.5,10,20.2,21,29.2,32.3c5.7,7.2,11.1,14.9,12.9,24.5c2.8,14.7,9.9,27.7,17.7,40.2c4.7,7.5,9.4,14.9,14.2,22.5
		c-1.5,1.2-2.9,2.5-4.3,3.6c0.4,7,6.2,6,11.7,7.1c-1.4,2.1-2.1,3.9-3.4,5c-1.5,1.3-3.5,2-5.1,2.9c14.6,16,16.2,23.5,8.5,34.5
		c5.2,6.7,6.5,14.2,3.8,22.3c-0.8,2.5-1.3,5.1-1.6,7.8c-0.5,4.5,0.4,8.5,5.2,10.9c2.8-3.6,5.3-4.2,7.9,0.3c0.8,1.4,2.9,2,4.5,2.8
		c7.6,4.3,15.3,8.6,23.1,13c-2.1,2.8-5.4,4.5-2.2,9.7c3.7,5.9,7.4,9.7,14.3,10.1c0.4,0,0.8,0.4,2,0.9c-4.9,1.7-8.6,3.2-12.4,4.2
		C38.1,298,38,297.5,33.7,287c-1.4-3.5-5.1-6.4-8.2-9c-1.2-1-3.7-0.4-5.6-0.5c0,2.3-0.3,4.6,0,6.8c0.1,0.9,1.5,1.7,2.3,2.6
		c7.4,8.8,7.2,9.8,0.9,19.8c-2.1,3.3-3.9,7.4-4,11.3c-0.8,22.3,11.5,38.2,27,51.9c8.4,7.4,18.1,13.3,27,20c1.3,1,2.3,2.9,2.6,4.5
		c1.5,8.4,2.7,16.9,4.2,25.3c1.4,8.5,3.5,16.7,10.3,23c5.3,4.9,5.1,5.1-0.2,9.5c1,2.5,2.1,5.1,3.2,7.8c-2,1.3-3.8,2.4-5.5,3.6
		c-3.5,2.4-4.9,5.8-3.7,9.9c0.5,1.8,1.9,3.4,2.9,5.1c6.4,10.2,13.1,20.1,22.6,27.9c2.6,2.1,4,6.1,5.2,9.6c1,2.8,0.2,6.3,1.3,9
		c4,10,8.5,19.8,12.9,29.6c1.7,3.9,3.5,7.8,5.8,11.4c2.8,4.6,5.2,10.5,9.5,12.9c6.8,3.8,10.9,9.1,14.6,15.3c0.6,1.1,0.6,3.1,0.1,4.3
		C157.1,602.9,155,606.9,153.3,610.5z M561.9,463c-1.1,0.7-2.8,1.6-2.8,1.9c1.4,5.9-0.5,13.3,5.1,17.5c8.1,6.2,13.3,14.1,16.9,23.4
		c1.5,4,3.9,7.6,5.8,11.4c1.9,3.9,2.9,8.7,5.8,11.6c7.7,7.6,13.1,16.3,17,26.2c2.3,5.9,5.9,11.3,8.3,17.2
		c5.1,12.2,9.6,24.7,14.7,36.9c4.6,11,9.8,21.8,14.8,32.6c4.8,10.4,9.2,20.9,14.6,31c5.4,10.1,11.6,19.7,17.6,29.4
		c4.6,7.4,8.8,15.2,14.2,22c8.7,11,17.9,21.8,27.6,32c8.4,8.8,17.7,16.7,26.8,24.8c1.2,1,4.1,1.4,5.3,0.7c3-1.7,0.4-3.6-0.7-5.3
		c-4.9-7-10-13.8-14.7-20.9c-1.4-2.1-2.9-5-2.7-7.3c0.7-7,2.4-13.9,3.6-20.9c0.3-2,1.2-4.6,0.3-6c-0.6-1.1-3.6-0.7-5.8-1
		c-1.6-3.2-3.5-6.8-5.2-10.4c-0.9-1.9-2.2-3.8-2.4-5.8c-1.1-9.7-1.8-19.4-2.8-29.1c-0.8-7.4,0.1-13.9,7-18.2
		c0.4-0.3,0.7-0.9,1.4-1.8c-3.7,0-6.7,0.2-9.6-0.1c-1.5-0.1-3.4-0.8-4.2-1.9c-3.7-5.4-1.7-11.5-1.6-17.3c0-2.1,3.1-4.4,2.7-6.2
		c-0.4-1.7-3.3-2.9-5.1-4.4c-0.2-0.1-0.2-0.5-0.3-0.8c2.7-1.9,5.5-3.9,8.3-5.8c-3.8-3.9-8.1-7.3-7.5-13.8c5.3,1.1,10.4,2.2,17,3.6
		c-6.3-9-11.5-16.9-17.1-24.5c-0.8-1.1-3.1-1.6-4.7-1.7c-7.1-0.4-14.2-0.6-20.2-0.8c-2.9-5.3-5.5-9.4-7.6-13.7
		c-0.9-1.9-1.8-4.5-1.1-6.2c1.5-3.9-0.1-6.3-2.8-8.1c-2.8-1.8-6-3.5-9.3-4.2c-5.2-1.1-6.8-4.1-7.3-9c-0.7-7.9-1.7-15.7-3-23.6
		c-1.4-8.6-4.7-16.4-12.3-21.7c-1.1-0.7-1.4-3-1.4-4.6c-0.2-6.4,0.4-12.9-0.3-19.3c-0.3-2.9-2.7-5.7-4.4-8.3
		c-1.7-2.5-4.7-4.4-5.5-7.1c-4.8-17.3-9.6-34.7-4.5-52.9c1.9-7,3.2-14.2,5.1-22.5c-3.1,1.6-4.9,2.6-6.8,3.5
		c-7.3,3.1-13.2,2.4-12.7-6.9c0.4-8.3,2.3-16.6,3.5-24.9c0.2-1.4,0.2-3.8-0.6-4.3c-2.4-1.5-5.1-2.8-7.8-3.4
		c-13-2.9-18.4-13.3-13.3-24.8c-4.8-6.6-9.9-12.7-14-19.4c-8.2-13.4-12.3-28.5-16.8-43.4c-3.1-10.2-5.9-20.4-9.2-30.5
		c-6.5-19.9-13.5-39.7-19.7-59.7c-3.6-11.6-5.8-23.7-9.1-35.4c-1.6-5.6-4.1-10.8-6.5-16.2c-1.3-2.9-3.2-5.6-4.3-8.6
		c-0.9-2.4-1-5.1-1.4-7.5c-13.3-0.5-19.2-13.9-22.1-27.8c3.6-1.4,7.2-2.8,11.3-4.3c-1.4-1.3-2.1-2.3-3-2.7
		c-7.2-3.5-14.4-7-21.6-10.5c-1.3-0.6-3.1-1.1-3.7-2.2c-5.9-9.6-11.5-19.4-17.5-29.6c1.2,0.2,1.9,0.6,2.4,0.4c1.4-0.6,3.3-1.2,4-2.3
		c0.4-0.7-0.7-3-1.7-3.7c-6.9-4.6-13.5-8.3-18-16.6c-5.7-10.4-14.8-19-23.1-27.8c-8.3-8.8-17.2-17.1-26.2-25.2
		c-9.5-8.7-19.3-17-29.2-25.2c-10.2-8.6-20.6-17-31.1-25.3c-11.1-8.9-22.2-17.6-33.5-26.3c-16.2-12.5-32.5-24.8-48.8-37.2
		c-8.4-6.4-16.8-12.7-25.3-18.9c-5.6-4.1-10.9-8.6-17.1-11.6c-7.8-3.8-16.3-6.3-24.4-9.3c-6.3-2.3-12.5-4.8-18.8-6.9
		c-1.3-0.5-3.2,0.1-4.6,0.6c-0.3,0.1-0.3,2.8,0.3,3.4c4.6,4.2,4.2,9.5,3.3,14.8c-0.7,4,0.5,5.9,4.7,5.8c1-1.6,1.9-3.1,3.3-5.4
		c12.4,7.8,25.1,14.7,36.6,23.2c17.2,12.8,33.7,26.6,50.3,40.1c5.4,4.3,10.8,8.8,15.6,13.7c5.4,5.5,11.5,11,15.1,17.6
		c10,18.6,24.8,32.7,39.9,46.7c7.4,6.9,17,11.6,21.5,21.6c4.2,9.1,8.9,18.1,13.5,27c6.3,12.2,12.7,24.3,19.4,36.3
		c0.9,1.6,3.5,2.2,5.3,3.3c0.8-2,2.1-4,2.2-6c0.1-2.5-1-5-1.5-7.6c0.2,0,0.3-0.1,0.5-0.1c11.4,19.7,22.9,39.4,34.3,59.1
		c-6.4,4.4-6.9,7-2.5,13.1c2.5,3.5,5.1,6.9,7.8,10.3c8.1,10.1,8.6,19.3,1.4,30.4c-2.5,4-5,8-7.4,12.1c-0.6,1-1,2.7-0.5,3.4
		c0.6,0.8,2.2,1.2,3.4,1.3c1.9,0.2,3.9-0.4,5.6,0.1c17.1,5,31.1,14.3,40.5,29.8c2.8,4.7,1.4,9.5-2.1,13.6c-3.1,3.7-6.9,2.6-10.3,0.6
		c-2.6-1.5-5.1-3.1-7.2-5.2c-4.5-4.3-8.7-8.9-12.9-13.2c-4.1,2.5-5.4,3.9-1.4,7.6c3.4,3.1,5.1,8.2,7.7,12.6c-6.5,3.8-8.7,9-9.2,15.6
		c-0.9,13.6,6.8,23.8,12.9,34.5c6.5,11.3,16.8,20,22.5,31.9c0.5,1.1,1.7,2.3,2.8,2.6c5.8,1.3,11.6,2.7,17.5,3.3
		c3.5,0.3,5.5,1.3,6.4,4.7c2.7,10,5.5,20,8.2,30c1.3,4.7,1.9,9.4,5.8,13.3c2.4,2.4,2.6,7-0.8,9.7c-4.7,3.7-9.7,7-14.9,10.7
		c1.6,2.8-1.1,8.5,6.7,8.4c-5.7,6-2.4,10.5,1,14.8c3.6,4.6,8.3,8.6,11.1,13.6c4.9,8.6,9.9,17.5,12.8,26.9
		c3.2,10.4,7.6,19.8,14.4,28.2C552.2,450.2,557,456.7,561.9,463z M481.8,714.1c0.8-2.9,2-4.9,1.5-6.4c-1.5-4.9-4-9.6-5.6-14.5
		c-2.2-7-4-14.1-5.7-21.3c-2.5-9.9,0.3-21.5-9-29.3c-1.1-0.9-2.1-2.1-3-3.3c-2.3-3.1-5.8-6-6.6-9.6c-2.1-8.8-2.9-17.9-4.4-26.8
		c-1.4-9.1-2.2-18.4-9-25.6c-1.3-1.4-2-3.3-3-4.9c5.8-5.4,11.4-10.6,15.9-14.8c-8-14.4-16-27.6-22.9-41.4
		c-3.9-7.8-5.7-16.6-8.8-24.9c-0.6-1.7-2.5-3-3.9-4.4c-1.1,1.6-3.1,3.2-3.1,4.7c0.1,4.6,1.4,9.2,1.6,13.8c0.3,7.5,0.1,15.1,0.1,23.3
		c-1.6-2.3-2.8-3.8-3.8-5.4c-10.2-14.9-23-27.9-30.3-44.8c-3.8-9-7.4-17.9-8.1-27.6c-0.1-1.5,1.1-3.7,2.4-4.7
		c2.8-2.2,6.1-3.8,8.8-5.5c-0.6-9.9-8.9-3.7-13.7-7.5c1-0.4,1.7-0.5,2.2-0.9c4.9-3.5,4.7-4.3,0.9-8.9c-1.9-2.3-3.3-5.3-3.8-8.2
		c-2-12,0.2-22.9,9.8-31.4c1.1-1,2.2-3.5,1.8-4.6c-0.8-1.8-2.7-3.6-4.6-4.2c-2.9-1-6.1-1-9-1.4c-3-8.8-2.7-6.5,4.3-10.5
		c2-1.1,4.1-1.9,7.5-3.5c-3.7-2-6.3-3.3-8.9-4.8c-2.8-1.6-5.6-3.3-9-5.2c6.6-3.6,12.3-6.8,18.2-10c3.7,5.2,7.2,9.9,10.7,14.8
		c1.9-1.3,3.2-2.2,4.5-3c-1.6-8.6-0.2-13.3,5.4-20.2c1.5-1.8,3.3-3.8,3.7-5.9c1.4-7.4-1.1-14-5.1-20.1c-5.9-9.1-11.6-18.3-17.8-27.2
		c-5.1-7.3-10.2-14.6-20.9-14.1c-2.9,0.1-5.8-1-8.7-1.8c-0.9-0.2-2.3-1.1-2.4-1.7c-0.5-5.5-1.3-11.1-0.7-16.5
		c0.3-2.5,3.6-4.7,5.5-7.1c-3.3-2.8-6.8-5.8-10.3-8.8c1.8-1.6,3.1-2.8,4.5-4.1c-1.4-2.7-2.6-5.1-3.9-7.7c5.6-0.4,9.7,2,13.8,5
		c1.1,0.8,3.2,0.2,4.9,0.2c-0.1-1.7,0.2-3.5-0.4-5c-0.4-1.1-1.8-1.9-2.9-2.5c-8-4.6-12.8-11-11.6-20.8c0.1-1.1,0.2-2.4-0.1-3.5
		c-0.4-1.3-1-2.8-2-3.8c-4.7-4.7-9.9-9-14.2-14c-4.3-4.9-9.2-10.1-11.2-16.1c-3.2-9.6-8.4-17.6-15.8-24.1
		c-8.7-7.7-18-14.8-27.3-22.3c2.6-7.1,2.6-7.2-0.2-12.3c-3.8-7-7.5-14.1-11.6-21c-2.8-4.7-6.1-8.8-12.9-7.3
		c-5.6,1.3-10.1-1-13.9-5.5c-8.5-10.3-17.1-20.5-26.3-30.2c-8.2-8.7-16.8-17-25.9-24.8c-11.8-10.1-23.4-20.6-36.4-29
		c-21.9-14.1-43.9-28.3-68.6-37.6C76-60.7,69.6-63.9,63-66.4c-8.5-3.3-17-6.3-25.6-9.1c-1.3-0.4-3.2,1-4.9,1.6
		c0.6,1.6,0.9,3.6,1.9,4.8c5.5,6.1,11.7,11.6,16.8,18c6.2,7.7,5.4,16.4-1,23.7c-0.8,0.9-1.5,1.9-3,3.9c9,0,16.8,0,24.6,0
		c0.2,0.6,0.4,1.2,0.7,1.8c-2.3,1.8-4.7,3.7-7.4,5.8c1.9,1,3.2,1.6,4.5,2.3c6.5,3.7,13,7.5,19.5,11.1C93-0.4,93,3.1,90.7,5.4
		c-4.6,4.6-1.9,7.2,1.5,10.4c8.8,8.1,14.7,17.8,16.6,29.9c0.5,3.4,1.5,6.6,2.4,10.3c-0.5,0.1-1.7,0.6-2.9,0.5
		c-1.3-0.1-2.6-0.8-4.1-1.3c0.5,7.9,1.1,11.5,10.3,12.8c5.7,0.8,12.5-0.7,17.8-3.4c7.3-3.6,6.9-4.5,13.5,0.7
		c0.4,0.3,0.9,0.5,1.2,0.8c14.6,12.1,29.4,24.1,43.8,36.5c3.1,2.7,5.5,6.8,6.8,10.7c1.6,5.2,1.9,10.8,2.5,16.2
		c1,9.6,0.9,9.6,10.7,10.7c0.3,0,0.6,0.3,0.9,0.4c1.8,12.4,3.6,24.8,5.4,37.1c0.9,6.4-0.8,11.5-6.6,15c-1.1,0.7-2.3,2.4-2.2,3.4
		c0.1,1.1,1.7,2.5,2.9,2.8c2.5,0.7,5.2,0.9,7.8,0.9c6.2,0.1,6.5,0.3,5.9,6.5c-0.1,1.1-0.6,2.2-1,3.2c-1.9,3.9-4,7.8-5.9,11.5
		c8.7,3.7,17.4,7.3,25.8,11.2c1.7,0.8,3.2,2.8,3.8,4.6c0.3,0.7-2,2.4-3.3,3.5c-1,0.8-2.2,1.4-2.8,1.8c3.1,8.3,4.8,16.4,3.3,24.9
		c-0.1,0.8-0.8,1.5-1.1,2.2c-0.7,1.8-2.1,3.8-1.9,5.5c2.1,21.1,10.4,40.2,20.2,58.6c7.2,13.4,15.9,26,24.3,39.4
		c-3,0.2-5.1,0.3-7.9,0.5c3.2,4.2,6,7.9,8.7,11.6c11.5,15.6,22.9,31.2,31.2,48.8c0.8,1.7,0.8,4.8-0.3,6.1
		c-6.3,8.3-4.7,14.1,5.1,17.5c1.8,0.6,3.8,2.6,4.5,4.4c2.3,6.3,5,12.7,5.9,19.3c0.9,6.8,5.5,10.7,9.1,15.5
		c8.1,10.4,16.3,20.7,24,31.4c4.7,6.7,8,14.3,12.7,21c4.6,6.5,6.8,13.4,7.1,21.2c0.2,6.5,1.7,12.7,5.9,17.9
		c5.4,6.9,10.7,13.8,16.4,20.4c6.3,7.3,10.7,15.5,11.9,25c1.4,11.1,5.5,21.3,11.6,30.1c11.3,16.3,24.3,31.5,39.8,44.2
		C474.9,709.9,477.9,711.5,481.8,714.1z"/>
	<path d="M153.3,610.5c1.7-3.6,3.9-7.6,5.7-11.7c0.5-1.2,0.5-3.2-0.1-4.3c-3.6-6.2-7.8-11.5-14.6-15.3c-4.2-2.4-6.6-8.3-9.5-12.9
		c-2.2-3.6-4-7.5-5.8-11.4c-4.4-9.8-8.9-19.7-12.9-29.6c-1.1-2.7-0.3-6.2-1.3-9c-1.2-3.4-2.6-7.4-5.2-9.6
		c-9.6-7.8-16.3-17.7-22.6-27.9c-1-1.7-2.4-3.2-2.9-5.1c-1.2-4.1,0.2-7.5,3.7-9.9c1.7-1.2,3.5-2.3,5.5-3.6c-1.1-2.7-2.2-5.2-3.2-7.8
		c5.3-4.4,5.5-4.6,0.2-9.5c-6.7-6.3-8.8-14.5-10.3-23c-1.4-8.4-2.6-16.9-4.2-25.3c-0.3-1.6-1.3-3.6-2.6-4.5c-9-6.8-18.6-12.7-27-20
		c-15.6-13.7-27.8-29.7-27-51.9c0.1-3.8,1.9-8,4-11.3c6.3-10,6.5-11-0.9-19.8c-0.7-0.9-2.1-1.6-2.3-2.6c-0.3-2.2-0.1-4.5,0-6.8
		c1.9,0.1,4.4-0.5,5.6,0.5c3.1,2.6,6.7,5.4,8.2,9c4.3,10.5,4.4,11,14.9,8.2c3.8-1,7.6-2.5,12.4-4.2c-1.2-0.5-1.6-0.9-2-0.9
		c-6.9-0.4-10.7-4.2-14.3-10.1c-3.2-5.2,0.1-6.9,2.2-9.7c-7.8-4.4-15.5-8.7-23.1-13c-1.6-0.9-3.7-1.5-4.5-2.8
		c-2.6-4.5-5.1-3.9-7.9-0.3c-4.7-2.4-5.6-6.4-5.2-10.9c0.3-2.6,0.8-5.3,1.6-7.8c2.7-8.2,1.4-15.7-3.8-22.3c7.7-11,6.1-18.5-8.5-34.5
		c1.7-0.9,3.6-1.6,5.1-2.9c1.3-1.1,2.1-2.9,3.4-5c-5.5-1.2-11.3-0.1-11.7-7.1c1.3-1.1,2.8-2.4,4.3-3.6c-4.8-7.6-9.5-15.1-14.2-22.5
		c-7.8-12.5-14.9-25.5-17.7-40.2c-1.8-9.6-7.3-17.3-12.9-24.5c-9-11.4-18.7-22.3-29.2-32.3c-12.3-11.7-25.6-22.4-38.9-33
		c-4.4-3.5-10.2-5.3-15.6-8c0.4-1.8,0.8-3.8,1.4-6.6c5.4,1.6,10.7,3.1,16.5,4.9c-1.4-6-23.9-26.9-46.2-45.7
		c-16.3-13.8-32.6-27.4-51.8-36.9c2.1-7.3,2.1-7.2,8.1-4.2c9.5,4.7,19.3,8.7,28.8,13.6c10.1,5.2,20,11,29.8,16.8
		c14.8,8.6,29.8,17.1,44.2,26.3c10.3,6.6,20,14.3,29.8,21.7C-61-3-52.1,6.1-44.8,16.7c0.3,0.4,0.6,1,1,1.1c9,1.4,11.1,10,15.9,15.6
		C-12.2,51.5,2.7,70.4,19,88c5.9,6.4,14.7,10.2,22.2,15.1c7,4.6,14.1,9,21.2,13.6c-0.1,0.5-0.2,0.9-0.4,1.4
		c-6.1-0.3-12.3-0.6-19.5-0.9c1.1,2.9,1.7,5.6,3.1,7.7c7.5,11.1,15.1,22.3,23.1,33.1c2.3,3.2,6,5.4,9.1,7.9c0.8,0.7,2.4,1.2,3.3,0.9
		c7.5-2.7,10,3.5,13.6,7.6c2.1,2.3,3.8,4.9,5.9,7.6c-3.8,0-7.1,0-10.8,0c6.3,10.6,12.5,20.4,18.1,30.6c3,5.4,5.5,11.2,7,17.2
		c3.2,12.1,5.3,24.4,8.3,36.6c4.5,18.1,9.2,36.1,14,54c2.7,10,5.6,20,8.8,29.9c3.4,10.2,7.5,20.1,12.9,29.6
		c6.5,11.3,10.5,23.9,16.3,35.6c5.9,12,12.6,23.7,19,35.4c1,1.9,2.3,3.9,4,5c6,3.7,7.1,8.7,5.7,15.2c-2.1,10.2,2.8,18.3,8.6,25.9
		c1.4,1.8,4.6,2.1,7.1,3.2c-0.8,8.5-2,17-2.3,25.5c-0.5,12.8,0.5,25.5,4.5,37.7c3.9,12,7.9,23.9,11.8,35.9c0.4,1.4,0.4,2.9,0.5,4.4
		c0.5,7.8,2.3,14.5,8.7,20.3c3.7,3.3,5.5,9.2,7.2,14.2c2.2,6.4,6.6,12,4.6,19.9c-1.4,5.4,6.1,13.3,12.1,15.1c4,1.2,5.6,4.4,4.8,8.8
		c-2.3,13.3,1.4,20.9,15.3,24.4c3,0.8,6.5,0.1,9.7-0.2c7-0.8,11.4,2,13.8,8.6c0.9,2.5,2.8,4.9,4.8,6.8c3,2.9,3.6,6.1,2.2,10.3
		c-2.2,0.2-4.4,0.3-8,0.6c1.4,1.9,2.1,3.5,3.2,4.5c5.2,4.7,5.1,7.7,0,12.2c-0.7,0.6-0.9,2.2-0.9,3.3c0,2,1.3,4.6,0.4,6
		c-2.7,4.6-1.5,8.8-0.2,13.3c0.9,3.1,1.4,6.4,2.5,9.5c0.4,1.1,1.7,2.4,2.9,2.7c2.2,0.5,4.7,0.6,4,3.7c-0.4,1.9-1.7,3.7-2.7,5
		c-3.2,15.8,10.4,20.4,20.5,29c-3.8,0-6.3,0.2-8.8,0c-9.4-0.8-13.8,4.5-11,13.7c0.9,2.8,2.1,5.6,3.1,8.4
		c5.3,14.3,10.9,28.5,15.8,42.9c2.5,7.4,4.1,15.2,5.7,22.9c0.4,1.9-0.6,4.7-1.9,6c-0.8,0.7-4.3-0.2-5.5-1.5
		c-8.3-8.9-16.5-17.8-24.3-27.2c-5.9-7.1-11.4-14.5-16.6-22.2c-4.8-7-9-14.4-13.2-21.7c-6.6-11.3-13.4-22.6-19.5-34.1
		c-4.7-8.9-8.6-18.3-12.9-27.4c-1.8-3.7-4-7.2-5.7-10.9c-5.5-12.2-10.9-24.4-16.4-36.6c-1.4-3-3.2-5.8-4.5-8.8
		c-5.2-11.3-9.8-23-15.5-34c-7.2-13.8-15.2-27.2-23.2-40.6c-1.6-2.7-4.4-4.8-7.1-6.7c-1.9-1.4-2.4-3.7-3.5-5
		c-5.5-6.4-5.3-15.2-10-21.5C161.6,614.4,157.2,613,153.3,610.5z"/>
	<path d="M561.9,463c-4.8-6.3-9.7-12.8-14.8-19c-6.8-8.4-11.2-17.8-14.4-28.2c-2.9-9.4-7.9-18.3-12.8-26.9c-2.9-5-7.5-9-11.1-13.6
		c-3.4-4.3-6.8-8.8-1-14.8c-7.8,0.1-5.1-5.5-6.7-8.4c5.2-3.7,10.2-7,14.9-10.7c3.4-2.7,3.2-7.3,0.8-9.7c-3.9-3.9-4.5-8.6-5.8-13.3
		c-2.7-10-5.5-20-8.2-30c-0.9-3.4-2.9-4.4-6.4-4.7c-5.9-0.5-11.7-2-17.5-3.3c-1.1-0.2-2.3-1.5-2.8-2.6c-5.7-11.9-16-20.6-22.5-31.9
		c-6.1-10.7-13.7-21-12.9-34.5c0.4-6.6,2.6-11.8,9.2-15.6c-2.6-4.5-4.3-9.5-7.7-12.6c-3.9-3.6-2.6-5,1.4-7.6
		c4.2,4.3,8.4,8.9,12.9,13.2c2.1,2,4.7,3.7,7.2,5.2c3.5,2,7.2,3.1,10.3-0.6c3.5-4.2,5-9,2.1-13.6c-9.4-15.5-23.4-24.8-40.5-29.8
		c-1.7-0.5-3.8,0.1-5.6-0.1c-1.2-0.1-2.8-0.5-3.4-1.3c-0.5-0.7,0-2.4,0.5-3.4c2.3-4.1,4.8-8.2,7.4-12.1c7.1-11.2,6.7-20.4-1.4-30.4
		c-2.7-3.3-5.3-6.8-7.8-10.3c-4.4-6.1-3.8-8.7,2.5-13.1c-11.4-19.7-22.8-39.4-34.3-59.1c-0.2,0-0.3,0.1-0.5,0.1
		c0.6,2.5,1.6,5.1,1.5,7.6c0,2-1.4,4-2.2,6c-1.8-1.1-4.5-1.7-5.3-3.3c-6.7-12-13.1-24.1-19.4-36.3c-4.7-8.9-9.4-17.8-13.5-27
		c-4.5-9.9-14.1-14.7-21.5-21.6c-15.1-14.1-29.9-28.1-39.9-46.7c-3.6-6.7-9.6-12.1-15.1-17.6c-4.8-4.9-10.2-9.3-15.6-13.7
		c-16.7-13.5-33.1-27.3-50.3-40.1c-11.5-8.5-24.2-15.4-36.6-23.2c-1.4,2.3-2.3,3.8-3.3,5.4c-4.2,0.1-5.3-1.9-4.7-5.8
		c0.9-5.3,1.4-10.6-3.3-14.8c-0.7-0.6-0.7-3.3-0.3-3.4c1.4-0.6,3.2-1.1,4.6-0.6c6.3,2.1,12.6,4.6,18.8,6.9c8.2,3,16.6,5.5,24.4,9.3
		c6.1,3,11.5,7.6,17.1,11.6c8.5,6.2,16.9,12.5,25.3,18.9c16.3,12.4,32.6,24.7,48.8,37.2c11.2,8.7,22.4,17.4,33.5,26.3
		c10.4,8.3,20.8,16.7,31.1,25.3C377-71,386.8-62.7,396.4-54c9,8.1,17.9,16.4,26.2,25.2C430.8-20,440-11.4,445.6-1
		c4.5,8.3,11.1,12.1,18,16.6c1,0.7,2.1,3,1.7,3.7c-0.7,1.2-2.5,1.7-4,2.3c-0.5,0.2-1.2-0.2-2.4-0.4c6,10.2,11.7,19.9,17.5,29.6
		c0.7,1.1,2.4,1.6,3.7,2.2c7.2,3.5,14.5,6.9,21.6,10.5c1,0.5,1.7,1.5,3,2.7c-4.1,1.6-7.7,3-11.3,4.3c2.8,13.9,8.8,27.4,22.1,27.8
		c0.4,2.5,0.6,5.1,1.4,7.5c1.1,3,3,5.7,4.3,8.6c2.3,5.3,4.9,10.6,6.5,16.2c3.3,11.7,5.5,23.8,9.1,35.4c6.2,20,13.3,39.8,19.7,59.7
		c3.3,10.1,6.1,20.4,9.2,30.5c4.6,14.9,8.6,30,16.8,43.4c4.1,6.7,9.2,12.8,14,19.4c-5.1,11.6,0.3,21.9,13.3,24.8
		c2.7,0.6,5.5,1.9,7.8,3.4c0.8,0.5,0.8,2.9,0.6,4.3c-1.1,8.3-3,16.6-3.5,24.9c-0.5,9.3,5.4,10,12.7,6.9c1.9-0.8,3.7-1.9,6.8-3.5
		c-1.9,8.3-3.2,15.5-5.1,22.5c-5,18.2-0.3,35.6,4.5,52.9c0.7,2.7,3.8,4.6,5.5,7.1c1.8,2.6,4.1,5.4,4.4,8.3
		c0.7,6.4,0.2,12.9,0.3,19.3c0,1.6,0.4,3.9,1.4,4.6c7.6,5.3,10.9,13,12.3,21.7c1.3,7.8,2.3,15.7,3,23.6c0.5,4.8,2.1,7.9,7.3,9
		c3.3,0.7,6.5,2.3,9.3,4.2c2.7,1.8,4.3,4.2,2.8,8.1c-0.7,1.7,0.2,4.3,1.1,6.2c2.1,4.3,4.6,8.5,7.6,13.7c6.1,0.2,13.2,0.4,20.2,0.8
		c1.6,0.1,3.9,0.6,4.7,1.7c5.6,7.6,10.9,15.4,17.1,24.5c-6.5-1.4-11.6-2.5-17-3.6c-0.6,6.6,3.8,9.9,7.5,13.8c-2.8,2-5.6,3.9-8.3,5.8
		c0.1,0.3,0.1,0.7,0.3,0.8c1.8,1.5,4.8,2.6,5.1,4.4c0.4,1.8-2.7,4.1-2.7,6.2c-0.1,5.8-2.1,12,1.6,17.3c0.8,1.1,2.7,1.8,4.2,1.9
		c3,0.3,6,0.1,9.6,0.1c-0.7,1-0.9,1.6-1.4,1.8c-7,4.3-7.8,10.8-7,18.2c1.1,9.7,1.7,19.4,2.8,29.1c0.2,2,1.5,3.9,2.4,5.8
		c1.8,3.6,3.6,7.2,5.2,10.4c2.1,0.3,5.1-0.1,5.8,1c0.9,1.4,0.1,4-0.3,6c-1.2,7-2.8,13.9-3.6,20.9c-0.2,2.3,1.3,5.2,2.7,7.3
		c4.7,7.1,9.8,14,14.7,20.9c1.1,1.6,3.7,3.5,0.7,5.3c-1.3,0.7-4.2,0.3-5.3-0.7c-9.1-8.1-18.5-16-26.8-24.8
		c-9.7-10.2-18.8-21-27.6-32c-5.4-6.8-9.6-14.6-14.2-22c-6-9.7-12.3-19.3-17.6-29.4c-5.4-10.1-9.8-20.6-14.6-31
		c-5-10.8-10.2-21.6-14.8-32.6c-5.2-12.2-9.7-24.6-14.7-36.9c-2.4-5.9-6-11.3-8.3-17.2c-3.9-9.9-9.3-18.6-17-26.2
		c-2.9-2.9-3.9-7.7-5.8-11.6c-1.9-3.8-4.2-7.5-5.8-11.4c-3.6-9.3-8.8-17.2-16.9-23.4c-5.6-4.3-3.7-11.6-5.1-17.5
		C559,464.5,560.8,463.7,561.9,463z"/>
	<path d="M481.8,714.1c-3.9-2.6-6.9-4.3-9.5-6.4c-15.5-12.7-28.5-27.9-39.8-44.2c-6.1-8.8-10.2-19-11.6-30.1
		c-1.2-9.5-5.6-17.7-11.9-25c-5.7-6.6-11-13.6-16.4-20.4c-4.1-5.2-5.6-11.4-5.9-17.9c-0.3-7.8-2.6-14.7-7.1-21.2
		c-4.7-6.7-8-14.4-12.7-21c-7.6-10.7-15.9-21-24-31.4c-3.7-4.8-8.2-8.6-9.1-15.5c-0.9-6.6-3.6-13-5.9-19.3c-0.7-1.8-2.7-3.7-4.5-4.4
		c-9.8-3.4-11.4-9.3-5.1-17.5c1-1.4,1.1-4.5,0.3-6.1c-8.3-17.6-19.7-33.2-31.2-48.8c-2.7-3.7-5.5-7.3-8.7-11.6
		c2.8-0.2,4.8-0.3,7.9-0.5c-8.3-13.4-17.1-26-24.3-39.4c-9.8-18.4-18.1-37.5-20.2-58.6c-0.2-1.8,1.2-3.7,1.9-5.5
		c0.3-0.8,0.9-1.4,1.1-2.2c1.4-8.5-0.2-16.6-3.3-24.9c0.7-0.4,1.8-1,2.8-1.8c1.3-1.1,3.5-2.8,3.3-3.5c-0.7-1.8-2.2-3.8-3.8-4.6
		c-8.5-3.9-17.1-7.5-25.8-11.2c1.9-3.7,3.9-7.6,5.9-11.5c0.5-1,0.9-2.1,1-3.2c0.6-6.3,0.3-6.4-5.9-6.5c-2.6-0.1-5.3-0.3-7.8-0.9
		c-1.2-0.3-2.8-1.7-2.9-2.8c-0.1-1.1,1.1-2.8,2.2-3.4c5.8-3.5,7.5-8.6,6.6-15c-1.8-12.4-3.6-24.8-5.4-37.1c-0.4-0.2-0.6-0.4-0.9-0.4
		c-9.8-1.1-9.7-1.1-10.7-10.7c-0.6-5.4-0.8-11.1-2.5-16.2c-1.2-3.9-3.7-8.1-6.8-10.7C176.4,90.1,161.6,78.1,147,66
		c-0.4-0.3-0.8-0.5-1.2-0.8c-6.6-5.1-6.1-4.3-13.5-0.7c-5.3,2.6-12.1,4.2-17.8,3.4c-9.2-1.3-9.8-4.9-10.3-12.8
		c1.4,0.5,2.7,1.2,4.1,1.3c1.2,0.1,2.4-0.4,2.9-0.5c-0.9-3.7-1.9-7-2.4-10.3c-1.8-12-7.7-21.8-16.6-29.9C88.8,12.6,86,10,90.7,5.4
		C93,3.1,93-0.4,89.1-2.5c-6.6-3.6-13-7.4-19.5-11.1c-1.3-0.7-2.6-1.3-4.5-2.3c2.7-2.2,5.1-4,7.4-5.8c-0.2-0.6-0.4-1.2-0.7-1.8
		c-7.8,0-15.5,0-24.6,0c1.6-2.1,2.3-3,3-3.9c6.4-7.3,7.1-16,1-23.7c-5.1-6.4-11.3-11.9-16.8-18c-1.1-1.2-1.3-3.2-1.9-4.8
		c1.6-0.6,3.6-2.1,4.9-1.6c8.6,2.8,17.2,5.9,25.6,9.1c6.7,2.6,13.1,5.7,19.7,8.2c24.6,9.3,46.7,23.4,68.6,37.6
		c13,8.4,24.6,18.9,36.4,29c9.1,7.8,17.7,16.1,25.9,24.8c9.1,9.7,17.7,20,26.3,30.2c3.8,4.5,8.2,6.8,13.9,5.5
		c6.8-1.6,10.1,2.6,12.9,7.3c4.1,6.8,7.8,13.9,11.6,21c2.8,5.2,2.8,5.2,0.2,12.3c9.2,7.5,18.6,14.6,27.3,22.3
		c7.3,6.5,12.5,14.4,15.8,24.1c2,6,6.9,11.1,11.2,16.1c4.3,5,9.5,9.3,14.2,14c1,1,1.6,2.4,2,3.8c0.3,1.1,0.3,2.3,0.1,3.5
		c-1.2,9.8,3.5,16.2,11.6,20.8c1.1,0.6,2.5,1.5,2.9,2.5c0.5,1.5,0.3,3.3,0.4,5c-1.6,0-3.8,0.6-4.9-0.2c-4.1-3-8.2-5.4-13.8-5
		c1.3,2.6,2.5,5,3.9,7.7c-1.4,1.2-2.7,2.4-4.5,4.1c3.5,3,7,5.9,10.3,8.8c-2,2.4-5.3,4.6-5.5,7.1c-0.6,5.4,0.2,11,0.7,16.5
		c0.1,0.7,1.5,1.5,2.4,1.7c2.9,0.8,5.8,1.9,8.7,1.8c10.6-0.5,15.8,6.9,20.9,14.1c6.2,8.9,11.9,18.2,17.8,27.2
		c4,6.1,6.5,12.8,5.1,20.1c-0.4,2.1-2.2,4.1-3.7,5.9c-5.6,6.9-7,11.7-5.4,20.2c-1.3,0.9-2.6,1.8-4.5,3c-3.6-4.9-7-9.7-10.7-14.8
		c-5.9,3.3-11.6,6.4-18.2,10c3.4,2,6.2,3.6,9,5.2c2.6,1.4,5.2,2.8,8.9,4.8c-3.4,1.6-5.6,2.4-7.5,3.5c-6.9,4-7.3,1.7-4.3,10.5
		c2.9,0.4,6.1,0.4,9,1.4c1.8,0.6,3.8,2.5,4.6,4.2c0.5,1.1-0.6,3.6-1.8,4.6c-9.6,8.5-11.8,19.4-9.8,31.4c0.5,2.9,1.9,6,3.8,8.2
		c3.8,4.6,4,5.4-0.9,8.9c-0.5,0.4-1.2,0.5-2.2,0.9c4.8,3.8,13.1-2.4,13.7,7.5c-2.7,1.6-6,3.3-8.8,5.5c-1.3,1-2.5,3.1-2.4,4.7
		c0.7,9.8,4.2,18.6,8.1,27.6c7.3,17,20.1,30,30.3,44.8c1.1,1.6,2.2,3.1,3.8,5.4c0-8.2,0.2-15.8-0.1-23.3c-0.2-4.6-1.4-9.2-1.6-13.8
		c0-1.6,2-3.2,3.1-4.7c1.3,1.5,3.2,2.7,3.9,4.4c3.1,8.3,4.9,17.1,8.8,24.9c6.8,13.8,14.8,27,22.9,41.4c-4.5,4.2-10,9.4-15.9,14.8
		c1,1.7,1.7,3.6,3,4.9c6.8,7.2,7.5,16.5,9,25.6c1.4,8.9,2.3,18,4.4,26.8c0.8,3.5,4.3,6.4,6.6,9.6c0.9,1.2,1.9,2.3,3,3.3
		c9.4,7.8,6.6,19.4,9,29.3c1.8,7.1,3.5,14.3,5.7,21.3c1.5,4.9,4,9.6,5.6,14.5C483.8,709.2,482.5,711.3,481.8,714.1z"/>
</g>
</svg>
